#!OML:ASF E:\motion texture\Top Level 1\Subject 1\Session 1\male.ASF
:FULLY-SPECIFIED
:DEGREES
286
root -0.811192 18.2323 6.90017 153.661 -82.7529 -146.393
lowerback 0.441415 -0.84651 6.38547
upperback -2.67295 -1.11484 6.95623
thorax -2.99579 -0.741977 3.6806
lowerneck -19.694 -2.54639 -4.47806
upperneck 7.85092 -2.79894 3.94046
head 5.65979 -1.20877 1.68394
rclavicle -3.83654e-014 4.45278e-014
rhumerus 57.3677 7.15684 -61.639
rradius 57.8573
rwrist 12.7615
rhand -24.1454 -19.0836
rfingers 7.12502
rthumb 2.33697 -49.0506
lclavicle -3.83654e-014 4.45278e-014
lhumerus 62.5972 -9.29327 72.9305
lradius 48.5302
lwrist -31.1369
lhand -26.5385 23.047
lfingers 7.12502
lthumb 0.0256532 53.0268
rfemur -16.7171 3.61603 25.5867
rtibia 19.6458
rfoot -4.83731 -15.9855
rtoes 13.925
lfemur -23.0274 2.79239 -12.806
ltibia 50.0975
lfoot -1.75288 3.43117
ltoes -17.8099
287
root -0.958355 18.247 6.89832 155.28 -82.2745 -147.917
lowerback 0.49143 -0.75895 6.49174
upperback -2.68195 -0.997877 7.08354
thorax -3.03551 -0.690092 3.7542
lowerneck -19.714 -2.53709 -4.45562
upperneck 7.84058 -2.78665 3.90314
head 5.65814 -1.20499 1.66956
rclavicle -5.1684e-015 -2.8625e-014
rhumerus 57.6741 6.99278 -62.3321
rradius 57.0268
rwrist 12.9441
rhand -24.1513 -18.9115
rfingers 7.12502
rthumb 2.33126 -48.8786
lclavicle -5.1684e-015 -2.8625e-014
lhumerus 63.2769 -9.19486 72.8916
lradius 47.5915
lwrist -31.3683
lhand -26.3265 22.4623
lfingers 7.12502
lthumb 0.230429 52.4419
rfemur -16.1767 3.80489 25.6965
rtibia 19.4358
rfoot -5.06453 -15.7275
rtoes 13.4806
lfemur -23.6903 2.92104 -12.8943
ltibia 49.2583
lfoot -2.27024 3.84586
ltoes -17.5297
288
root -1.10499 18.26 6.89676 156.74 -81.7966 -149.279
lowerback 0.536382 -0.675039 6.58187
upperback -2.68892 -0.88658 7.2066
thorax -3.07005 -0.640538 3.8323
lowerneck -19.733 -2.52871 -4.43913
upperneck 7.83703 -2.77537 3.87471
head 5.6588 -1.20115 1.65889
rclavicle -1.80894e-014 -1.11319e-014
rhumerus 57.9219 6.83642 -63.0567
rradius 56.2462
rwrist 13.117
rhand -24.1487 -18.7338
rfingers 7.12502
rthumb 2.33372 -48.7008
lclavicle -1.80894e-014 -1.11319e-014
lhumerus 63.9263 -9.15944 72.8363
lradius 46.6788
lwrist -31.5523
lhand -26.0933 21.8585
lfingers 7.12502
lthumb 0.45563 51.8378
rfemur -15.6552 3.97628 25.7933
rtibia 19.2489
rfoot -5.29485 -15.4697
rtoes 13.0215
lfemur -24.3185 3.03847 -12.9807
ltibia 48.2998
lfoot -2.79439 4.25742
ltoes -17.2947
289
root -1.25124 18.2715 6.89542 158.051 -81.3215 -150.49
lowerback 0.577299 -0.595728 6.65748
upperback -2.69516 -0.781993 7.32547
thorax -3.1014 -0.593896 3.91415
lowerneck -19.7486 -2.52059 -4.4276
upperneck 7.83974 -2.76443 3.85443
head 5.66114 -1.19699 1.6516
rclavicle -1.8487e-014 7.4743e-014
rhumerus 58.1074 6.68799 -63.8083
rradius 55.5165
rwrist 13.2752
rhand -24.1527 -18.5422
rfingers 7.12502
rthumb 2.32985 -48.5092
lclavicle -1.8487e-014 7.4743e-014
lhumerus 64.5414 -9.18604 72.762
lradius 45.7931
lwrist -31.6938
lhand -25.8651 21.2278
lfingers 7.12502
lthumb 0.676003 51.2065
rfemur -15.1521 4.12837 25.8789
rtibia 19.0869
rfoot -5.52933 -15.2125
rtoes 12.5474
lfemur -24.9107 3.14179 -13.0614
ltibia 47.2281
lfoot -3.31473 4.66216
ltoes -17.0996
290
root -1.39716 18.2812 6.89423 159.22 -80.8492 -151.557
lowerback 0.612869 -0.521774 6.72159
upperback -2.70065 -0.685302 7.44062
thorax -3.12886 -0.550826 3.99862
lowerneck -19.7609 -2.5128 -4.421
upperneck 7.85097 -2.75385 3.84164
head 5.66591 -1.19253 1.64749
rclavicle -4.05521e-014 4.77083e-015
rhumerus 58.2292 6.54799 -64.5821
rradius 54.8432
rwrist 13.4043
rhand -24.1715 -18.3396
rfingers 7.12502
rthumb 2.3117 -48.3068
lclavicle -4.05521e-014 4.77083e-015
lhumerus 65.1192 -9.27342 72.6644
lradius 44.943
lwrist -31.7812
lhand -25.637 20.5794
lfingers 7.12502
lthumb 0.896375 50.5572
rfemur -14.6686 4.26205 25.9568
rtibia 18.953
rfoot -5.76882 -14.9562
rtoes 12.0588
lfemur -25.4679 3.23123 -13.1319
ltibia 46.0531
lfoot -3.81825 5.05359
ltoes -16.9351
